<svg t="1715589303968" class="icon" viewBox="0 0 1024 1024" version="1.1" xmlns="http://www.w3.org/2000/svg" p-id="4381" width="64" height="64"><path d="M444.24 512m-336 0a336 336 0 1 0 672 0 336 336 0 1 0-672 0Z" fill="#F97171" p-id="4382"></path><path d="M432.04 499.84m-314.68 0a314.68 314.68 0 1 0 629.36 0 314.68 314.68 0 1 0-629.36 0Z" fill="#FF8888" p-id="4383"></path><path d="M444.24 856a344 344 0 1 1 344-344 344.4 344.4 0 0 1-344 344z m0-672a328 328 0 1 0 328 328 328.36 328.36 0 0 0-328-328z" fill="#2FB1EA" p-id="4384"></path><path d="M444.24 768a256 256 0 1 1 256-256 256.28 256.28 0 0 1-256 256z" fill="#FFFFFF" p-id="4385"></path><path d="M444.24 776a264 264 0 1 1 264-264 264.28 264.28 0 0 1-264 264z m0-512a248 248 0 1 0 248 248 248.28 248.28 0 0 0-248-248z" fill="#2FB1EA" p-id="4386"></path><path d="M444.24 688a176 176 0 1 1 176-176 176 176 0 0 1-176 176z" fill="#FF8888" p-id="4387"></path><path d="M444.24 696a184 184 0 1 1 184-184 184.2 184.2 0 0 1-184 184z m0-352a168 168 0 1 0 168 168 168 168 0 0 0-168-168z" fill="#2FB1EA" p-id="4388"></path><path d="M444.24 608a96 96 0 1 1 96-96 96 96 0 0 1-96 96z" fill="#FFFFFF" p-id="4389"></path><path d="M444.24 616a104 104 0 1 1 104-104 104 104 0 0 1-104 104z m0-192a88 88 0 1 0 88 88 88 88 0 0 0-88-88z" fill="#2FB1EA" p-id="4390"></path><path d="M444.24 512m-16 0a16 16 0 1 0 32 0 16 16 0 1 0-32 0Z" fill="#FF8888" p-id="4391"></path><path d="M444.24 536a24 24 0 1 1 24-24 24 24 0 0 1-24 24z m0-32a8 8 0 1 0 8 8 8 8 0 0 0-8-8z" fill="#2FB1EA" p-id="4392"></path><path d="M907.76 450.08h-90.4a8 8 0 0 0-4 1.16L752.32 488h-198.04l8.28-14.24a8 8 0 0 0-9.96-11.44l-103.4 42.28a8 8 0 0 0 0 14.8l103.4 42.24a8 8 0 0 0 9.96-11.44l-8.28-14.2h198.04l60.92 36.76a8 8 0 0 0 4 1.16h90.4a8 8 0 0 0 5.64-13.64L865.16 512l48.24-48.28a8 8 0 0 0-5.64-13.64z" fill="#6DD0FC" p-id="4393"></path><path d="M907.76 450.08h-90.4a8 8 0 0 0-4 1.16L752.32 488h-198.04l8.28-14.24a8 8 0 0 0-9.96-11.44l-103.4 42.28c-6.64 2.72 11-3.32 17.64-0.6l53.68 22.36a8 8 0 0 0 9.96-11.44l221.88-1.52 60.92 36.76a8 8 0 0 0 4 1.16h75.24a8 8 0 0 0 5.64-13.64l-33-25.68 48.24-48.28a8 8 0 0 0-5.64-13.64z" fill="#A4ECFF" p-id="4394"></path><path d="M907.76 581.92h-90.4a16 16 0 0 1-8.28-2.32l-58.96-35.6H568l1.28 2.2a16 16 0 0 1-20 22.84l-103.12-42.24a16 16 0 0 1 0-29.64l103.4-42.24a16 16 0 0 1 20 22.84l-1.56 2.24h181.92l59.04-35.6a16 16 0 0 1 8.28-2.32h90.4a16 16 0 0 1 11.32 27.32L876.48 512l42.6 42.6a16 16 0 0 1-11.32 27.32zM554.28 528h198.04a8 8 0 0 1 4 1.16l60.92 36.76h90.4l-48.24-48.28a8 8 0 0 1 0-11.32l48.24-48.28h-90.4l-60.92 36.76a8 8 0 0 1-4 1.16h-198.04a8 8 0 0 1-6.92-12l8.28-14.24L452.24 512l103.4 42.24-8.28-14.24a8 8 0 0 1 6.92-12z" fill="#2FB1EA" p-id="4395"></path><path d="M762 752m-20 0a20 20 0 1 0 40 0 20 20 0 1 0-40 0Z" fill="#D4FFD4" p-id="4396"></path><path d="M682 152m-16 0a16 16 0 1 0 32 0 16 16 0 1 0-32 0Z" fill="#D4FFD4" p-id="4397"></path><path d="M894 836m-12 0a12 12 0 1 0 24 0 12 12 0 1 0-24 0Z" fill="#D4FFD4" p-id="4398"></path><path d="M82 352m-8 0a8 8 0 1 0 16 0 8 8 0 1 0-16 0Z" fill="#D4FFD4" p-id="4399"></path><path d="M794 184m-4 0a4 4 0 1 0 8 0 4 4 0 1 0-8 0Z" fill="#D4FFD4" p-id="4400"></path><path d="M506 44m-20 0a20 20 0 1 0 40 0 20 20 0 1 0-40 0Z" fill="#FFBDBD" p-id="4401"></path><path d="M26 496m-16 0a16 16 0 1 0 32 0 16 16 0 1 0-32 0Z" fill="#FFBDBD" p-id="4402"></path><path d="M938 400m-12 0a12 12 0 1 0 24 0 12 12 0 1 0-24 0Z" fill="#FFBDBD" p-id="4403"></path><path d="M214 856m-8 0a8 8 0 1 0 16 0 8 8 0 1 0-16 0Z" fill="#FFBDBD" p-id="4404"></path><path d="M930 276m-4 0a4 4 0 1 0 8 0 4 4 0 1 0-8 0Z" fill="#FFBDBD" p-id="4405"></path><path d="M994 520m-20 0a20 20 0 1 0 40 0 20 20 0 1 0-40 0Z" fill="#BBF1FF" p-id="4406"></path><path d="M238 136m-16 0a16 16 0 1 0 32 0 16 16 0 1 0-32 0Z" fill="#BBF1FF" p-id="4407"></path><path d="M106 736m-12 0a12 12 0 1 0 24 0 12 12 0 1 0-24 0Z" fill="#BBF1FF" p-id="4408"></path><path d="M670 884m-8 0a8 8 0 1 0 16 0 8 8 0 1 0-16 0Z" fill="#BBF1FF" p-id="4409"></path><path d="M834 332m-4 0a4 4 0 1 0 8 0 4 4 0 1 0-8 0Z" fill="#BBF1FF" p-id="4410"></path><path d="M554 980m-20 0a20 20 0 1 0 40 0 20 20 0 1 0-40 0Z" fill="#FFF4C5" p-id="4411"></path><path d="M346 940m-16 0a16 16 0 1 0 32 0 16 16 0 1 0-32 0Z" fill="#FFF4C5" p-id="4412"></path><path d="M782 276m-12 0a12 12 0 1 0 24 0 12 12 0 1 0-24 0Z" fill="#FFF4C5" p-id="4413"></path><path d="M386 72m-8 0a8 8 0 1 0 16 0 8 8 0 1 0-16 0Z" fill="#FFF4C5" p-id="4414"></path><path d="M98 208m-4 0a4 4 0 1 0 8 0 4 4 0 1 0-8 0Z" fill="#FFF4C5" p-id="4415"></path></svg>