<svg t="1717731717214" class="icon" viewBox="0 0 1024 1024" version="1.1" xmlns="http://www.w3.org/2000/svg" p-id="16825" width="48" height="48"><path d="M722.08 532.93c-30.02-12.28-61.9-21.75-94.76-28.51 43.81-37.53 69.52-95.61 61.6-159.25-10.11-81.34-76.21-146.6-157.66-155.73-108.3-12.14-200.37 72.67-200.37 178.57 0 54.57 24.53 103.44 63.04 136.43-32.5 6.69-64.05 16-93.74 28.09-76.93 31.33-125.45 108.17-122.23 191.17l3.6 92.75c1.22 31.5 27.11 56.4 58.64 56.4h543.72c31.53 0 57.43-24.92 58.64-56.44l3.51-91.71c3.16-83.05-46.66-160.12-123.99-191.77zM386.16 368.01c0-68.63 55.83-124.46 124.46-124.46s124.46 55.83 124.46 124.46c0 68.62-55.83 124.46-124.46 124.46s-124.46-55.83-124.46-124.46z m364.61 449.58H273.31c-20.33 0-37.02-16.06-37.81-36.37l-2.31-59.65c-2.33-60.09 32.92-115.63 88.67-138.19 57.63-23.31 122.94-35.64 188.76-35.64 66.54 0 132.42 12.57 190.53 36.35 55.93 22.89 91.97 78.55 89.68 138.51l-2.24 58.61c-0.79 20.31-17.48 36.38-37.82 36.38z" p-id="16826" fill="#8a8a8a"></path></svg>