<svg t="1717731625310" class="icon" viewBox="0 0 1024 1024" version="1.1" xmlns="http://www.w3.org/2000/svg" p-id="10538" width="48" height="48"><path d="M799.30368 920.75804445H244.31616c-39.41489778 0-71.48430222-32.06826667-71.48430222-71.48316445v-115.25688889a29.72672 29.72672 0 0 1 59.45457777 0v115.2512c0 6.64007111 5.39989333 12.03427555 12.03541334 12.03427556h554.98752a12.04110222 12.04110222 0 0 0 12.01834666-12.03427556V174.34737778a12.03541333 12.03541333 0 0 0-12.01834666-12.02972445H244.32184889a12.04679111 12.04679111 0 0 0-12.03541334 12.02972445v108.46321777a29.72672 29.72672 0 0 1-59.45457777 0v-108.46435555c0-39.41376 32.06940445-71.47747555 71.48430222-71.47747555h554.98752c39.40920889 0 71.47292445 32.06257778 71.47292445 71.47861333v674.92181333c0 39.42058667-32.06257778 71.48885333-71.47292445 71.48885334z" fill="#707070" p-id="10539"></path><path d="M535.56337778 551.18734222c-71.52412445 0-134.26346667-70.13831111-134.26346667-150.09223111 0-75.04782222 57.71832889-131.64771555 134.26346667-131.64771556 76.53489778 0 134.2464 56.59306667 134.2464 131.64771556 0 79.95392-62.73251555 150.09223111-134.2464 150.09223111z m0-222.29219555c-44.05134222 0-74.81571555 29.68689778-74.81571556 72.19996444 0 47.44305778 35.65795555 90.64448 74.81571556 90.64448 39.14752 0 74.79864889-43.20711111 74.79864889-90.64448 0-42.51306667-30.76437333-72.19996445-74.79751112-72.19996444z" fill="#707070" p-id="10540"></path><path d="M730.45333333 746.12963555a29.72672 29.72672 0 0 1-29.72672-29.72672c0-101.96309333-27.63093333-165.16323555-165.16892444-165.16323555-137.54368 0-165.17347555 63.20014222-165.17347556 165.16323555a29.72672 29.72672 0 0 1-59.45457778 0c0-96.42325333 23.28462222-224.61098667 224.62236445-224.61098666 201.33205333 0 224.61667555 128.18773333 224.61667555 224.61098666A29.70965333 29.70965333 0 0 1 730.45333333 746.12963555zM248.38826667 402.81884445h-96.78392889a29.72672 29.72672 0 0 1 0-59.45457778h96.78392889a29.72672 29.72672 0 0 1 0 59.45457778z m0 138.71445333h-96.78392889a29.72672 29.72672 0 1 1 0-59.45344h96.78392889a29.72672 29.72672 0 1 1 0 59.45344z m0 135.61059555h-96.78392889a29.72672 29.72672 0 1 1 0-59.45457778h96.78392889a29.72672 29.72672 0 1 1 0 59.45457778z" fill="#707070" p-id="10541"></path></svg>